<svg id="visual" viewBox="0 0 960 540" width="960" height="540" xmlns="http://www.w3.org/2000/svg" xmlns:xlink="http://www.w3.org/1999/xlink" version="1.1"><path d="M0 93L87 93L87 44L175 44L175 60L262 60L262 50L349 50L349 39L436 39L436 39L524 39L524 66L611 66L611 60L698 60L698 60L785 60L785 82L873 82L873 87L960 87L960 60L960 0L960 0L873 0L873 0L785 0L785 0L698 0L698 0L611 0L611 0L524 0L524 0L436 0L436 0L349 0L349 0L262 0L262 0L175 0L175 0L87 0L87 0L0 0Z" fill="#fa7268"></path><path d="M0 195L87 195L87 114L175 114L175 109L262 109L262 201L349 201L349 98L436 98L436 174L524 174L524 120L611 120L611 152L698 152L698 195L785 195L785 158L873 158L873 163L960 163L960 168L960 58L960 85L873 85L873 80L785 80L785 58L698 58L698 58L611 58L611 64L524 64L524 37L436 37L436 37L349 37L349 48L262 48L262 58L175 58L175 42L87 42L87 91L0 91Z" fill="#d55f88"></path><path d="M0 314L87 314L87 255L175 255L175 325L262 325L262 320L349 320L349 212L436 212L436 260L524 260L524 228L611 228L611 282L698 282L698 320L785 320L785 266L873 266L873 357L960 357L960 368L960 166L960 161L873 161L873 156L785 156L785 193L698 193L698 150L611 150L611 118L524 118L524 172L436 172L436 96L349 96L349 199L262 199L262 107L175 107L175 112L87 112L87 193L0 193Z" fill="#9c5b95"></path><path d="M0 401L87 401L87 341L175 341L175 428L262 428L262 379L349 379L349 260L436 260L436 368L524 368L524 336L611 336L611 384L698 384L698 384L785 384L785 303L873 303L873 395L960 395L960 422L960 366L960 355L873 355L873 264L785 264L785 318L698 318L698 280L611 280L611 226L524 226L524 258L436 258L436 210L349 210L349 318L262 318L262 323L175 323L175 253L87 253L87 312L0 312Z" fill="#5e578b"></path><path d="M0 541L87 541L87 541L175 541L175 541L262 541L262 541L349 541L349 541L436 541L436 541L524 541L524 541L611 541L611 541L698 541L698 541L785 541L785 541L873 541L873 541L960 541L960 541L960 420L960 393L873 393L873 301L785 301L785 382L698 382L698 382L611 382L611 334L524 334L524 366L436 366L436 258L349 258L349 377L262 377L262 426L175 426L175 339L87 339L87 399L0 399Z" fill="#2e4c6d"></path></svg>